
<svg xmlns="http://www.w3.org/2000/svg" xmlns:xlink="http://www.w3.org/1999/xlink" viewBox="0 0 40 42" width="40" height="42" fill="none">
  <svg xmlns="http://www.w3.org/2000/svg" height="40" width="40" viewBox="0 0 24 24" fill="#000" x="0" y="1" opacity="100%">
    <path d="M0 0h24v24H0V0z" fill="none"></path>
    <path d="M17 5H3a2 2 0 0 0-2 2v9h2c0 1.66 1.34 3 3 3s3-1.34 3-3h6c0 1.66 1.34 3 3 3s3-1.34 3-3h2v-5l-6-6zm-2 2h1l3 3h-4V7zM9 7h4v3H9V7zM3 7h4v3H3V7zm3 10.25a1.25 1.25 0 1 1 0-2.5 1.25 1.25 0 0 1 0 2.5zm12 0a1.25 1.25 0 1 1 0-2.5 1.25 1.25 0 0 1 0 2.5zM21 14h-.78c-.55-.61-1.34-1-2.22-1s-1.67.39-2.22 1H8.22c-.55-.61-1.33-1-2.22-1s-1.67.39-2.22 1H3v-2h18v2z"></path>
  </svg>
  <defs>
    <filter id="filter_dshadow_10_0_2_0000001a" color-interpolation-filters="sRGB" filterUnits="userSpaceOnUse">
      <feFlood flood-opacity="0" result="bg-fix"></feFlood>
      <feColorMatrix in="SourceAlpha" type="matrix" values="0 0 0 0 0 0 0 0 0 0 0 0 0 0 0 0 0 0 127 0" result="alpha"></feColorMatrix>
      <feOffset dx="0" dy="2"></feOffset>
      <feGaussianBlur stdDeviation="5"></feGaussianBlur>
      <feComposite in2="alpha" operator="out"></feComposite>
      <feColorMatrix type="matrix" values="0 0 0 0 0 0 0 0 0 0 0 0 0 0 0 0 0 0 0.1 0"></feColorMatrix>
      <feBlend mode="normal" in2="bg-fix" result="bg-fix-filter_dshadow_10_0_2_0000001a"></feBlend>
      <feBlend in="SourceGraphic" in2="bg-fix-filter_dshadow_10_0_2_0000001a" result="shape"></feBlend>
    </filter>
  </defs>
</svg>